<?xml version="1.0" encoding="utf-8"?>
<!-- Generator: Adobe Illustrator 15.1.0, SVG Export Plug-In . SVG Version: 6.00 Build 0)  -->
<!DOCTYPE svg PUBLIC "-//W3C//DTD SVG 1.1//EN" "http://www.w3.org/Graphics/SVG/1.1/DTD/svg11.dtd">
<svg version="1.1" id="Layer_1" xmlns="http://www.w3.org/2000/svg" xmlns:xlink="http://www.w3.org/1999/xlink" x="0px" y="0px"
	 width="80.788px" height="80.787px" viewBox="0 0 80.788 80.787" enable-background="new 0 0 80.788 80.787" xml:space="preserve">
<g>
	<g>
		<path d="M0,52.44h2.834v10.377h5.669v2.38H0C0,65.197,0,56.692,0,52.44L0,52.44z"/>
		<path d="M17.476,52.44c1.228,4.252,2.456,8.505,3.684,12.757c-0.909,0-1.819,0-2.729,0c-0.214-0.846-0.429-1.691-0.643-2.537
			c-1.303,0-2.607,0-3.91,0c-0.221,0.846-0.44,1.691-0.661,2.537c-0.909,0-1.819,0-2.729,0c1.2-4.252,2.397-8.505,3.598-12.757
			C15.216,52.44,16.346,52.44,17.476,52.44L17.476,52.44z M15.824,54.717c-0.023,0-0.046,0-0.07,0
			c-0.462,1.924-0.926,3.848-1.39,5.771c0.956,0,1.912,0,2.868,0C16.762,58.564,16.293,56.641,15.824,54.717L15.824,54.717z"/>
		<path d="M29.018,55.955c-0.024-0.045-0.049-0.09-0.076-0.136c-0.027-0.044-0.055-0.088-0.085-0.132
			c-0.029-0.043-0.061-0.086-0.094-0.128c-0.032-0.042-0.066-0.083-0.102-0.124c-0.035-0.04-0.072-0.08-0.11-0.119
			c-0.037-0.037-0.077-0.075-0.118-0.112c-0.04-0.035-0.082-0.07-0.125-0.104c-0.042-0.033-0.087-0.065-0.132-0.097
			c-0.044-0.031-0.091-0.062-0.139-0.089c-0.047-0.027-0.095-0.055-0.145-0.08c-0.049-0.024-0.099-0.048-0.15-0.069
			c-0.051-0.021-0.103-0.04-0.156-0.058c-0.054-0.019-0.107-0.033-0.162-0.048c-0.054-0.014-0.11-0.024-0.166-0.034
			c-0.056-0.009-0.113-0.016-0.17-0.021c-0.058-0.004-0.116-0.008-0.175-0.008c-0.087,0-0.168,0.005-0.245,0.013
			c-0.077,0.007-0.149,0.019-0.216,0.033c-0.067,0.014-0.129,0.031-0.188,0.053c-0.058,0.02-0.111,0.042-0.161,0.066
			c-0.05,0.025-0.095,0.052-0.137,0.081c-0.042,0.028-0.081,0.06-0.116,0.092c-0.035,0.031-0.067,0.065-0.095,0.098
			c-0.028,0.034-0.054,0.068-0.077,0.103c-0.022,0.035-0.043,0.069-0.061,0.105c-0.017,0.034-0.033,0.067-0.046,0.103
			c-0.013,0.033-0.024,0.066-0.033,0.098c-0.01,0.033-0.017,0.064-0.024,0.093c-0.006,0.029-0.011,0.057-0.015,0.081
			c-0.003,0.026-0.006,0.049-0.008,0.069s-0.003,0.04-0.004,0.054c0,0.015,0,0.027,0,0.035c0,0.055,0.003,0.105,0.01,0.156
			c0.005,0.05,0.015,0.098,0.026,0.145c0.012,0.045,0.026,0.089,0.043,0.133c0.017,0.043,0.036,0.084,0.058,0.124
			c0.021,0.038,0.045,0.075,0.07,0.113c0.026,0.036,0.054,0.071,0.084,0.104c0.029,0.033,0.062,0.065,0.095,0.096
			c0.034,0.031,0.068,0.062,0.104,0.09c0.037,0.029,0.075,0.057,0.114,0.083c0.039,0.024,0.08,0.051,0.121,0.074
			c0.042,0.025,0.083,0.048,0.127,0.07c0.043,0.022,0.087,0.044,0.132,0.065c0.044,0.021,0.09,0.04,0.136,0.06
			s0.092,0.038,0.139,0.058c0.047,0.019,0.093,0.035,0.14,0.053c0.604,0.229,1.219,0.427,1.818,0.667
			c0.047,0.018,0.094,0.037,0.141,0.057c0.047,0.02,0.095,0.041,0.142,0.063c0.048,0.022,0.096,0.046,0.143,0.068
			c0.048,0.023,0.096,0.049,0.143,0.074c0.048,0.025,0.095,0.051,0.143,0.078c0.047,0.026,0.094,0.055,0.14,0.082
			c0.047,0.028,0.094,0.059,0.14,0.088c0.045,0.03,0.091,0.062,0.136,0.093c0.045,0.031,0.089,0.063,0.132,0.098
			c0.043,0.032,0.086,0.066,0.127,0.1c0.042,0.036,0.083,0.07,0.123,0.107c0.04,0.035,0.079,0.072,0.116,0.108
			c0.039,0.038,0.075,0.077,0.11,0.114c0.035,0.039,0.07,0.078,0.102,0.119c0.043,0.055,0.085,0.111,0.127,0.166
			c0.012,0.018,0.025,0.037,0.04,0.058c0.015,0.021,0.03,0.045,0.046,0.072c0.016,0.024,0.033,0.054,0.051,0.083
			c0.017,0.03,0.036,0.063,0.054,0.097c0.019,0.033,0.038,0.07,0.057,0.108c0.02,0.038,0.039,0.078,0.058,0.12
			c0.019,0.043,0.038,0.087,0.057,0.132c0.019,0.046,0.038,0.094,0.055,0.144c0.019,0.05,0.036,0.1,0.053,0.153
			c0.017,0.053,0.033,0.108,0.048,0.164s0.029,0.114,0.042,0.174c0.014,0.061,0.025,0.121,0.036,0.185
			c0.01,0.062,0.019,0.126,0.026,0.191c0.008,0.066,0.014,0.133,0.018,0.203c0.004,0.068,0.006,0.139,0.006,0.209
			c0,0.085-0.001,0.169-0.003,0.252c-0.002,0.05-0.004,0.103-0.008,0.158c-0.003,0.056-0.009,0.114-0.015,0.177
			c-0.007,0.061-0.016,0.126-0.026,0.191c-0.011,0.065-0.024,0.134-0.039,0.203c-0.015,0.071-0.033,0.143-0.053,0.217
			c-0.021,0.072-0.044,0.147-0.071,0.222c-0.027,0.076-0.057,0.152-0.091,0.23c-0.034,0.076-0.072,0.154-0.114,0.231
			c-0.042,0.079-0.088,0.156-0.139,0.234c-0.051,0.078-0.107,0.155-0.167,0.232c-0.061,0.077-0.126,0.152-0.197,0.229
			c-0.071,0.074-0.147,0.148-0.229,0.221c-0.083,0.073-0.171,0.145-0.266,0.214c-0.094,0.07-0.195,0.137-0.303,0.202
			c-0.044,0.026-0.09,0.053-0.137,0.077c-0.046,0.026-0.095,0.05-0.143,0.072c-0.048,0.023-0.098,0.046-0.148,0.068
			c-0.05,0.021-0.101,0.041-0.151,0.059c-0.051,0.02-0.103,0.038-0.155,0.056c-0.052,0.019-0.104,0.035-0.157,0.052
			c-0.052,0.015-0.104,0.031-0.157,0.044c-0.053,0.015-0.105,0.028-0.158,0.04c-0.052,0.013-0.104,0.023-0.156,0.034
			c-0.101,0.021-0.203,0.039-0.304,0.056c-0.096,0.013-0.192,0.025-0.288,0.035c-0.046,0.005-0.091,0.009-0.134,0.011
			c-0.044,0.004-0.086,0.007-0.128,0.008c-0.041,0-0.081,0.001-0.12,0.001c-0.133,0-0.264-0.001-0.39-0.005
			c-0.127-0.005-0.251-0.013-0.371-0.02c-0.121-0.01-0.238-0.021-0.353-0.036c-0.114-0.014-0.226-0.03-0.335-0.05
			c-0.109-0.021-0.215-0.043-0.319-0.067c-0.104-0.026-0.205-0.056-0.303-0.088s-0.195-0.067-0.289-0.106
			c-0.094-0.04-0.186-0.082-0.276-0.129c-0.089-0.047-0.177-0.097-0.263-0.151c-0.085-0.055-0.169-0.113-0.252-0.176
			c-0.082-0.063-0.163-0.13-0.242-0.201s-0.156-0.147-0.233-0.228c-0.077-0.081-0.151-0.166-0.226-0.257
			c-0.073-0.091-0.146-0.187-0.218-0.286c-0.071-0.102-0.142-0.207-0.211-0.318c-0.07-0.112-0.139-0.228-0.208-0.351
			c0.691-0.456,1.38-0.916,2.07-1.373c0.028,0.063,0.057,0.125,0.088,0.188c0.031,0.062,0.063,0.12,0.097,0.178
			c0.033,0.059,0.068,0.113,0.104,0.169c0.037,0.054,0.073,0.106,0.113,0.157c0.039,0.051,0.079,0.101,0.12,0.147
			c0.041,0.048,0.084,0.093,0.128,0.137c0.043,0.043,0.089,0.085,0.135,0.125c0.046,0.039,0.093,0.076,0.143,0.113
			c0.048,0.034,0.098,0.067,0.149,0.101c0.051,0.031,0.103,0.06,0.156,0.088s0.107,0.054,0.163,0.077
			c0.056,0.021,0.112,0.043,0.169,0.063c0.057,0.018,0.116,0.035,0.175,0.048c0.06,0.016,0.12,0.027,0.182,0.037
			c0.062,0.01,0.124,0.016,0.187,0.022c0.064,0.005,0.127,0.006,0.193,0.006c0.037,0,0.074,0,0.114-0.001
			c0.04-0.004,0.08-0.007,0.122-0.012c0.042-0.005,0.085-0.012,0.129-0.018c0.043-0.009,0.088-0.017,0.133-0.027
			c0.044-0.011,0.09-0.022,0.135-0.036c0.045-0.016,0.091-0.03,0.135-0.048c0.045-0.018,0.089-0.037,0.133-0.059
			c0.043-0.021,0.086-0.045,0.128-0.071c0.042-0.024,0.083-0.053,0.121-0.082c0.039-0.031,0.077-0.064,0.112-0.099
			c0.036-0.034,0.07-0.072,0.102-0.111c0.031-0.04,0.061-0.082,0.087-0.127c0.027-0.046,0.051-0.095,0.072-0.144
			c0.021-0.052,0.04-0.106,0.054-0.163c0.014-0.057,0.026-0.117,0.034-0.18c0.008-0.063,0.012-0.128,0.012-0.197
			c0-0.057-0.002-0.111-0.006-0.161c-0.004-0.054-0.01-0.103-0.019-0.149c-0.008-0.046-0.019-0.092-0.033-0.135
			s-0.03-0.085-0.048-0.124s-0.04-0.077-0.065-0.114c-0.025-0.036-0.052-0.07-0.082-0.105c-0.031-0.034-0.064-0.068-0.102-0.101
			c-0.037-0.032-0.077-0.063-0.121-0.097c-0.044-0.031-0.092-0.063-0.143-0.093c-0.051-0.032-0.106-0.063-0.165-0.095
			s-0.123-0.062-0.189-0.095c-0.067-0.03-0.139-0.063-0.214-0.096c-0.482-0.217-0.981-0.396-1.472-0.593
			c-0.112-0.045-0.224-0.093-0.333-0.14c-0.11-0.048-0.218-0.097-0.324-0.146c-0.106-0.051-0.21-0.103-0.313-0.155
			c-0.102-0.054-0.201-0.108-0.298-0.166c-0.097-0.057-0.191-0.117-0.283-0.18c-0.092-0.062-0.18-0.128-0.265-0.194
			c-0.085-0.068-0.168-0.14-0.246-0.214c-0.078-0.073-0.153-0.151-0.224-0.232c-0.071-0.079-0.138-0.165-0.201-0.253
			c-0.063-0.089-0.121-0.183-0.175-0.279c-0.054-0.097-0.103-0.199-0.147-0.305c-0.044-0.106-0.085-0.218-0.119-0.333
			c-0.034-0.117-0.064-0.237-0.087-0.364c-0.023-0.127-0.042-0.259-0.054-0.396c-0.012-0.139-0.018-0.283-0.018-0.432
			c0-0.125,0.005-0.249,0.017-0.37s0.028-0.238,0.051-0.354c0.022-0.116,0.05-0.229,0.083-0.339c0.033-0.11,0.072-0.218,0.117-0.321
			c0.044-0.105,0.093-0.205,0.147-0.305c0.055-0.096,0.114-0.192,0.179-0.284c0.064-0.09,0.134-0.179,0.209-0.262
			c0.074-0.084,0.154-0.164,0.239-0.24s0.174-0.149,0.268-0.218c0.095-0.067,0.194-0.132,0.297-0.191
			c0.104-0.061,0.212-0.115,0.325-0.167c0.113-0.05,0.23-0.098,0.353-0.139c0.122-0.041,0.248-0.078,0.379-0.111
			c0.131-0.031,0.267-0.058,0.406-0.08c0.14-0.021,0.283-0.037,0.432-0.048c0.148-0.012,0.3-0.019,0.457-0.019
			c0.111,0,0.222,0.003,0.33,0.01c0.107,0.006,0.212,0.014,0.316,0.026c0.104,0.011,0.206,0.025,0.306,0.043
			c0.1,0.016,0.198,0.035,0.294,0.06c0.096,0.022,0.191,0.047,0.283,0.076c0.093,0.028,0.184,0.06,0.273,0.094
			s0.177,0.071,0.263,0.111c0.086,0.04,0.17,0.083,0.253,0.127c0.083,0.046,0.164,0.094,0.244,0.146
			c0.079,0.052,0.158,0.106,0.234,0.162c0.077,0.058,0.152,0.118,0.227,0.181c0.075,0.062,0.147,0.127,0.219,0.195
			c0.071,0.068,0.142,0.14,0.21,0.213c0.069,0.075,0.136,0.152,0.203,0.231c0.067,0.08,0.132,0.163,0.196,0.249
			c0.064,0.084,0.127,0.173,0.19,0.265C30.354,55.072,29.687,55.514,29.018,55.955C28.994,55.91,29.018,55.955,29.018,55.955z"/>
		<path d="M39.934,55.955c-0.023-0.045-0.049-0.09-0.076-0.136c-0.027-0.044-0.055-0.088-0.085-0.132
			c-0.029-0.043-0.061-0.086-0.093-0.128c-0.032-0.042-0.066-0.083-0.102-0.124c-0.035-0.04-0.072-0.08-0.11-0.119
			c-0.038-0.037-0.077-0.075-0.118-0.112c-0.04-0.035-0.082-0.07-0.125-0.104c-0.043-0.033-0.087-0.065-0.132-0.097
			s-0.091-0.062-0.139-0.089c-0.047-0.027-0.095-0.055-0.145-0.08c-0.05-0.024-0.099-0.048-0.15-0.069
			c-0.051-0.021-0.103-0.04-0.156-0.058c-0.053-0.019-0.107-0.033-0.162-0.048c-0.055-0.014-0.11-0.024-0.166-0.034
			c-0.056-0.009-0.113-0.016-0.17-0.021c-0.059-0.004-0.116-0.008-0.175-0.008c-0.087,0-0.168,0.005-0.245,0.013
			c-0.077,0.007-0.149,0.019-0.216,0.033c-0.067,0.014-0.129,0.031-0.188,0.053c-0.058,0.02-0.111,0.042-0.162,0.066
			c-0.049,0.025-0.095,0.052-0.137,0.081c-0.042,0.028-0.081,0.06-0.116,0.092c-0.035,0.031-0.067,0.065-0.095,0.098
			c-0.029,0.034-0.054,0.068-0.077,0.103c-0.023,0.035-0.043,0.069-0.061,0.105c-0.017,0.034-0.033,0.067-0.046,0.103
			c-0.013,0.033-0.024,0.066-0.033,0.098c-0.01,0.033-0.018,0.064-0.024,0.093c-0.006,0.029-0.011,0.057-0.015,0.081
			c-0.003,0.026-0.006,0.049-0.008,0.069c-0.002,0.021-0.003,0.04-0.004,0.054c0,0.015,0,0.027,0,0.035
			c0,0.055,0.003,0.105,0.009,0.156c0.006,0.05,0.015,0.098,0.026,0.145c0.012,0.045,0.026,0.089,0.043,0.133
			c0.017,0.043,0.036,0.084,0.058,0.124c0.021,0.038,0.045,0.075,0.071,0.113c0.026,0.036,0.054,0.071,0.084,0.104
			s0.062,0.065,0.095,0.096c0.033,0.031,0.068,0.062,0.104,0.09c0.037,0.029,0.075,0.057,0.114,0.083
			c0.039,0.024,0.08,0.051,0.122,0.074c0.042,0.025,0.083,0.048,0.127,0.07c0.043,0.022,0.087,0.044,0.132,0.065
			c0.045,0.021,0.091,0.04,0.137,0.06s0.092,0.038,0.139,0.058c0.047,0.019,0.093,0.035,0.14,0.053
			c0.604,0.229,1.219,0.427,1.818,0.667c0.047,0.018,0.094,0.037,0.141,0.057c0.048,0.02,0.095,0.041,0.142,0.063
			c0.047,0.022,0.096,0.046,0.143,0.068c0.048,0.023,0.095,0.049,0.143,0.074s0.095,0.051,0.142,0.078
			c0.047,0.026,0.094,0.055,0.141,0.082c0.047,0.028,0.094,0.059,0.139,0.088c0.045,0.03,0.091,0.062,0.136,0.093
			s0.088,0.063,0.132,0.098c0.043,0.032,0.085,0.066,0.127,0.1c0.042,0.036,0.083,0.07,0.123,0.107
			c0.04,0.035,0.079,0.072,0.117,0.108c0.038,0.038,0.075,0.077,0.11,0.114c0.036,0.039,0.07,0.078,0.103,0.119
			c0.042,0.055,0.085,0.111,0.127,0.166c0.012,0.018,0.025,0.037,0.04,0.058c0.014,0.021,0.029,0.045,0.046,0.072
			c0.016,0.024,0.033,0.054,0.05,0.083c0.018,0.03,0.036,0.063,0.055,0.097c0.019,0.033,0.038,0.07,0.057,0.108
			c0.02,0.038,0.038,0.078,0.058,0.12c0.02,0.043,0.039,0.087,0.057,0.132c0.02,0.046,0.038,0.094,0.056,0.144
			c0.019,0.05,0.036,0.1,0.052,0.153c0.018,0.053,0.033,0.108,0.049,0.164s0.029,0.114,0.042,0.174
			c0.014,0.061,0.025,0.121,0.036,0.185c0.01,0.062,0.019,0.126,0.026,0.191c0.008,0.066,0.014,0.133,0.017,0.203
			c0.004,0.068,0.006,0.139,0.006,0.209c0,0.085-0.001,0.169-0.002,0.252c-0.002,0.05-0.004,0.103-0.009,0.158
			c-0.003,0.056-0.008,0.114-0.015,0.177c-0.007,0.061-0.016,0.126-0.026,0.191c-0.011,0.065-0.023,0.134-0.038,0.203
			c-0.015,0.071-0.033,0.143-0.054,0.217c-0.021,0.072-0.043,0.147-0.071,0.222c-0.028,0.076-0.057,0.152-0.091,0.23
			c-0.034,0.076-0.072,0.154-0.114,0.231c-0.042,0.079-0.088,0.156-0.14,0.234c-0.051,0.078-0.106,0.155-0.167,0.232
			c-0.061,0.077-0.126,0.152-0.197,0.229c-0.071,0.074-0.148,0.148-0.23,0.221c-0.083,0.073-0.171,0.145-0.265,0.214
			c-0.094,0.07-0.195,0.137-0.303,0.202c-0.044,0.026-0.09,0.053-0.137,0.077c-0.046,0.026-0.094,0.05-0.143,0.072
			c-0.048,0.023-0.098,0.046-0.148,0.068c-0.05,0.021-0.101,0.041-0.152,0.059c-0.051,0.02-0.103,0.038-0.155,0.056
			c-0.052,0.019-0.104,0.035-0.156,0.052c-0.052,0.015-0.104,0.031-0.157,0.044c-0.053,0.015-0.105,0.028-0.157,0.04
			c-0.052,0.013-0.105,0.023-0.157,0.034c-0.101,0.021-0.202,0.039-0.304,0.056c-0.095,0.013-0.191,0.025-0.288,0.035
			c-0.046,0.005-0.09,0.009-0.134,0.011c-0.044,0.004-0.086,0.007-0.128,0.008c-0.041,0-0.08,0.001-0.119,0.001
			c-0.133,0-0.264-0.001-0.39-0.005c-0.126-0.005-0.25-0.013-0.371-0.02c-0.12-0.01-0.238-0.021-0.353-0.036
			c-0.114-0.014-0.226-0.03-0.335-0.05c-0.109-0.021-0.215-0.043-0.319-0.067c-0.104-0.026-0.205-0.056-0.303-0.088
			s-0.195-0.067-0.289-0.106c-0.094-0.04-0.186-0.082-0.276-0.129c-0.089-0.047-0.177-0.097-0.263-0.151s-0.169-0.113-0.252-0.176
			c-0.082-0.063-0.163-0.13-0.242-0.201c-0.079-0.071-0.156-0.147-0.233-0.228c-0.077-0.081-0.151-0.166-0.226-0.257
			c-0.073-0.091-0.146-0.187-0.218-0.286c-0.071-0.102-0.142-0.207-0.212-0.318c-0.07-0.112-0.139-0.228-0.207-0.351
			c0.69-0.456,1.379-0.916,2.07-1.373c0.029,0.063,0.057,0.125,0.088,0.188c0.032,0.062,0.063,0.12,0.097,0.178
			c0.034,0.059,0.068,0.113,0.105,0.169c0.037,0.054,0.073,0.106,0.112,0.157s0.079,0.101,0.121,0.147
			c0.041,0.048,0.084,0.093,0.128,0.137c0.043,0.043,0.089,0.085,0.135,0.125c0.046,0.039,0.093,0.076,0.143,0.113
			c0.048,0.034,0.098,0.067,0.149,0.101c0.05,0.031,0.103,0.06,0.156,0.088c0.053,0.028,0.107,0.054,0.163,0.077
			c0.055,0.021,0.112,0.043,0.168,0.063c0.057,0.018,0.116,0.035,0.175,0.048c0.06,0.016,0.121,0.027,0.183,0.037
			c0.062,0.01,0.124,0.016,0.187,0.022c0.064,0.005,0.127,0.006,0.193,0.006c0.037,0,0.074,0,0.114-0.001
			c0.039-0.004,0.08-0.007,0.122-0.012c0.042-0.005,0.086-0.012,0.13-0.018c0.043-0.009,0.088-0.017,0.132-0.027
			c0.045-0.011,0.09-0.022,0.136-0.036c0.045-0.016,0.09-0.03,0.135-0.048s0.089-0.037,0.133-0.059
			c0.043-0.021,0.086-0.045,0.128-0.071c0.042-0.024,0.083-0.053,0.121-0.082c0.039-0.031,0.077-0.064,0.112-0.099
			c0.036-0.034,0.069-0.072,0.102-0.111c0.031-0.04,0.061-0.082,0.087-0.127c0.027-0.046,0.051-0.095,0.072-0.144
			c0.021-0.052,0.039-0.106,0.054-0.163c0.014-0.057,0.026-0.117,0.034-0.18c0.007-0.063,0.011-0.128,0.011-0.197
			c0-0.057-0.001-0.111-0.006-0.161c-0.004-0.054-0.01-0.103-0.019-0.149c-0.008-0.046-0.02-0.092-0.033-0.135
			c-0.014-0.043-0.03-0.085-0.049-0.124c-0.018-0.039-0.04-0.077-0.064-0.114c-0.025-0.036-0.052-0.07-0.082-0.105
			c-0.031-0.034-0.065-0.068-0.102-0.101s-0.077-0.063-0.122-0.097c-0.044-0.031-0.091-0.063-0.143-0.093
			c-0.051-0.032-0.106-0.063-0.165-0.095s-0.123-0.062-0.189-0.095c-0.067-0.03-0.139-0.063-0.214-0.096
			c-0.483-0.217-0.982-0.396-1.472-0.593c-0.113-0.045-0.224-0.093-0.334-0.14c-0.109-0.048-0.218-0.097-0.324-0.146
			c-0.106-0.051-0.21-0.103-0.313-0.155c-0.102-0.054-0.201-0.108-0.298-0.166c-0.097-0.057-0.191-0.117-0.283-0.18
			c-0.092-0.062-0.18-0.128-0.266-0.194c-0.085-0.068-0.167-0.14-0.246-0.214c-0.078-0.073-0.153-0.151-0.224-0.232
			c-0.071-0.079-0.138-0.165-0.201-0.253c-0.063-0.089-0.122-0.183-0.175-0.279c-0.054-0.097-0.103-0.199-0.147-0.305
			c-0.044-0.106-0.084-0.218-0.119-0.333c-0.034-0.117-0.063-0.237-0.087-0.364c-0.023-0.127-0.042-0.259-0.054-0.396
			c-0.012-0.139-0.018-0.283-0.018-0.432c0-0.125,0.005-0.249,0.017-0.37c0.011-0.121,0.028-0.238,0.051-0.354
			c0.022-0.116,0.05-0.229,0.083-0.339c0.033-0.11,0.072-0.218,0.116-0.321c0.044-0.105,0.093-0.205,0.147-0.305
			c0.055-0.096,0.114-0.192,0.179-0.284c0.064-0.09,0.134-0.179,0.209-0.262c0.075-0.084,0.154-0.164,0.239-0.24
			c0.084-0.076,0.174-0.149,0.268-0.218c0.095-0.067,0.194-0.132,0.297-0.191c0.104-0.061,0.212-0.115,0.325-0.167
			c0.113-0.05,0.23-0.098,0.353-0.139s0.249-0.078,0.379-0.111c0.13-0.031,0.267-0.058,0.406-0.08
			c0.14-0.021,0.283-0.037,0.432-0.048c0.147-0.012,0.3-0.019,0.457-0.019c0.112,0,0.222,0.003,0.33,0.01
			c0.107,0.006,0.213,0.014,0.317,0.026c0.104,0.011,0.206,0.025,0.306,0.043c0.101,0.016,0.198,0.035,0.295,0.06
			c0.096,0.022,0.191,0.047,0.283,0.076c0.093,0.028,0.183,0.06,0.273,0.094c0.089,0.034,0.177,0.071,0.263,0.111
			c0.086,0.04,0.17,0.083,0.253,0.127c0.083,0.046,0.164,0.094,0.244,0.146s0.158,0.106,0.235,0.162
			c0.077,0.058,0.152,0.118,0.227,0.181c0.074,0.062,0.146,0.127,0.218,0.195c0.071,0.068,0.142,0.14,0.21,0.213
			c0.069,0.075,0.137,0.152,0.203,0.231c0.067,0.08,0.131,0.163,0.196,0.249c0.064,0.084,0.127,0.173,0.19,0.265
			C41.27,55.072,40.603,55.514,39.934,55.955C39.91,55.91,39.934,55.955,39.934,55.955z"/>
		<path d="M44.788,52.44h8.504v2.329h-5.669v2.712h3.968v2.328h-3.968v3.008h5.669v2.38h-8.504l0.006-12.757H44.788z"/>
	</g>
	<g>
		<path d="M0,68.031h2.834v12.755H0c0,0,0-8.505,0-12.758V68.031z"/>
		<polygon points="6.517,68.024 2.834,74.402 6.517,80.78 9.717,80.78 6.035,74.402 9.717,68.024 		"/>
		<path d="M19.034,68.028c1.249,4.254,2.509,8.505,3.76,12.758c-0.928,0-1.856,0-2.784,0c-0.219-0.846-0.437-1.691-0.657-2.537
			c-1.33,0-2.66,0-3.99,0c-0.225,0.846-0.448,1.691-0.674,2.537c-0.928,0-1.856,0-2.784,0c1.223-4.253,2.451-8.504,3.671-12.758
			C16.729,68.028,17.881,68.028,19.034,68.028L19.034,68.028z M17.35,70.306c-0.024,0-0.047,0-0.071,0
			c-0.474,1.924-0.945,3.848-1.418,5.771c0.975,0,1.95,0,2.926,0C18.307,74.153,17.829,72.229,17.35,70.306L17.35,70.306z"/>
		<path d="M24.935,68.031h8.504v2.327H27.77v2.745h3.968v2.364H27.77v5.318h-2.835V68.031L24.935,68.031z"/>
		<path d="M35.99,68.031h8.504v2.327h-5.669v2.71h3.969v2.33h-3.969v3.007h5.669v2.381H36c0,0,0-8.505,0-12.758L35.99,68.031z"/>
		<path d="M47.338,68.031h2.731l4.053,7.44l-0.01-7.44h2.625v12.755h-2.341l-4.433-8.29v8.29h-2.625V68.028l0,0V68.031z"/>
		<path d="M59.527,68.028c1.242,0,2.487-0.029,3.729,0.007c0.183,0.005,0.358,0.013,0.525,0.021
			c0.168,0.009,0.329,0.021,0.482,0.035c0.154,0.013,0.301,0.029,0.442,0.047c0.141,0.018,0.274,0.038,0.403,0.061
			c0.128,0.021,0.251,0.047,0.368,0.073c0.117,0.026,0.228,0.056,0.334,0.087c0.106,0.03,0.207,0.063,0.303,0.099
			c0.097,0.035,0.188,0.071,0.275,0.11c0.087,0.04,0.17,0.081,0.249,0.124s0.154,0.089,0.225,0.136
			c0.071,0.047,0.139,0.097,0.204,0.148c0.065,0.051,0.126,0.104,0.186,0.158c0.059,0.056,0.116,0.111,0.169,0.171
			c0.054,0.059,0.106,0.119,0.155,0.182c0.05,0.063,0.098,0.128,0.145,0.193c0.036,0.051,0.07,0.103,0.103,0.154
			s0.064,0.104,0.094,0.159c0.03,0.054,0.059,0.108,0.086,0.166c0.028,0.057,0.054,0.115,0.079,0.176
			c0.024,0.062,0.048,0.124,0.071,0.189c0.022,0.065,0.043,0.133,0.063,0.204c0.021,0.071,0.039,0.146,0.057,0.224
			c0.018,0.077,0.035,0.158,0.05,0.243c0.016,0.087,0.03,0.175,0.043,0.271c0.014,0.093,0.026,0.191,0.037,0.294
			c0.011,0.103,0.021,0.212,0.031,0.325s0.018,0.232,0.025,0.356c0.007,0.126,0.014,0.256,0.019,0.394
			c0.05,1.277,0.047,2.58,0.001,3.86c-0.003,0.09-0.008,0.181-0.014,0.271s-0.014,0.182-0.024,0.271
			c-0.009,0.091-0.021,0.181-0.035,0.271c-0.014,0.089-0.03,0.179-0.049,0.266c-0.018,0.088-0.039,0.176-0.062,0.263
			c-0.023,0.085-0.048,0.17-0.077,0.255c-0.028,0.084-0.059,0.167-0.092,0.248c-0.033,0.082-0.069,0.161-0.109,0.24
			s-0.082,0.155-0.127,0.229c-0.045,0.076-0.094,0.148-0.146,0.22c-0.052,0.071-0.108,0.139-0.167,0.206
			c-0.059,0.066-0.122,0.13-0.188,0.191c-0.065,0.063-0.136,0.121-0.209,0.179c-0.074,0.056-0.151,0.109-0.233,0.16
			c-0.081,0.051-0.167,0.099-0.256,0.143c-0.059,0.03-0.117,0.059-0.174,0.084c-0.058,0.026-0.116,0.052-0.172,0.076
			c-0.057,0.023-0.113,0.045-0.17,0.066c-0.056,0.021-0.112,0.041-0.167,0.061s-0.112,0.037-0.167,0.054s-0.111,0.032-0.167,0.047
			s-0.111,0.029-0.167,0.042c-0.055,0.013-0.111,0.024-0.167,0.036c-0.056,0.011-0.112,0.021-0.169,0.032
			c-0.056,0.009-0.113,0.019-0.17,0.028c-0.116,0.017-0.232,0.032-0.349,0.047c-0.247,0.031-0.496,0.051-0.744,0.071
			c-0.069,0.004-0.138,0.008-0.208,0.012c-1.391,0.033-2.782,0.022-4.173,0.022C59.527,76.533,59.527,72.281,59.527,68.028
			L59.527,68.028z M62.436,78.509c0.343,0,0.688,0.009,1.032-0.002c0.072-0.003,0.144-0.006,0.215-0.011
			c0.071-0.006,0.142-0.014,0.211-0.022c0.07-0.01,0.139-0.021,0.207-0.035s0.135-0.031,0.2-0.053
			c0.066-0.02,0.13-0.044,0.192-0.071c0.062-0.028,0.123-0.061,0.182-0.095c0.059-0.037,0.116-0.076,0.17-0.121
			c0.054-0.045,0.107-0.095,0.156-0.149c0.05-0.055,0.097-0.115,0.142-0.181c0.045-0.066,0.086-0.139,0.125-0.216
			c0.039-0.078,0.074-0.162,0.106-0.253c0.032-0.092,0.06-0.189,0.085-0.294s0.045-0.217,0.063-0.338
			c0.018-0.12,0.03-0.248,0.04-0.384c0.009-0.137,0.014-0.281,0.014-0.434c0-0.955,0.061-1.906,0.014-2.861
			c-0.003-0.078-0.008-0.153-0.013-0.229c-0.005-0.074-0.011-0.146-0.018-0.217c-0.006-0.068-0.013-0.138-0.021-0.204
			c-0.008-0.067-0.017-0.132-0.027-0.195c-0.01-0.064-0.021-0.125-0.032-0.185c-0.012-0.061-0.025-0.118-0.039-0.175
			s-0.029-0.11-0.045-0.163s-0.034-0.104-0.053-0.153c-0.02-0.05-0.04-0.097-0.062-0.144c-0.021-0.045-0.045-0.09-0.069-0.132
			c-0.025-0.043-0.051-0.084-0.079-0.123c-0.034-0.048-0.069-0.095-0.104-0.138s-0.071-0.082-0.107-0.12
			c-0.036-0.037-0.073-0.072-0.111-0.104c-0.038-0.032-0.077-0.063-0.116-0.09c-0.039-0.026-0.08-0.053-0.123-0.076
			c-0.042-0.022-0.086-0.043-0.131-0.063s-0.092-0.037-0.14-0.052c-0.049-0.016-0.098-0.029-0.15-0.041
			c-0.052-0.013-0.106-0.023-0.162-0.032c-0.055-0.01-0.114-0.018-0.174-0.025c-0.06-0.006-0.123-0.012-0.188-0.017
			c-0.065-0.005-0.133-0.009-0.203-0.013c-0.329-0.009-0.658-0.012-0.988-0.012C62.436,73.028,62.436,75.769,62.436,78.509
			L62.436,78.509z"/>
		<path d="M77.027,68.028c1.253,4.253,2.505,8.506,3.76,12.758c-0.929,0-1.856,0-2.785,0c-0.219-0.846-0.438-1.691-0.656-2.537
			c-1.33,0-2.66,0-3.99,0c-0.226,0.846-0.449,1.691-0.674,2.537c-0.928,0-1.856,0-2.784,0c1.222-4.253,2.45-8.505,3.671-12.758
			C74.722,68.028,75.875,68.028,77.027,68.028L77.027,68.028z M75.343,70.306c-0.024,0-0.047,0-0.071,0
			c-0.473,1.924-0.946,3.848-1.419,5.771c0.976,0,1.951,0,2.926,0C76.301,74.153,75.822,72.229,75.343,70.306L75.343,70.306z"/>
	</g>
</g>
<polygon points="64.432,0 45.609,32.599 64.432,65.197 80.788,65.197 61.965,32.599 80.788,0 "/>
<polygon points="46.771,46.771 0,46.771 0,0 14.173,0 14.173,32.599 38.58,32.599 "/>
</svg>
